<?xml version="1.0" encoding="utf-8"?>
<!-- Generator: Adobe Illustrator 21.0.0, SVG Export Plug-In . SVG Version: 6.00 Build 0)  -->
<svg version="1.1" id="Layer_1" xmlns="http://www.w3.org/2000/svg" xmlns:xlink="http://www.w3.org/1999/xlink" x="0px" y="0px"
	 viewBox="0 0 23.8 23.8" style="enable-background:new 0 0 23.8 23.8;" xml:space="preserve">
<style type="text/css">
	.st0{fill:#535353;}
</style>
<g transform="translate(-668.667 -76.667)">
	<path class="st0" d="M692.3,88c-0.1,0.3-0.3,0.6-0.6,0.7c-0.3,0.1-0.7,0.1-1-0.2c-0.1-0.1-0.2-0.1-0.3-0.3c0,0.1,0,0.2,0,0.3
		c0,1.1,0,2.3,0,3.4c0,0.4-0.2,0.8-0.6,0.9c-0.5,0.2-1-0.1-1.2-0.5c0-0.1-0.1-0.2-0.1-0.4c0-0.8,0-1.7,0-2.5c0-0.9,0-1.9,0-2.8
		c0-0.2-0.1-0.4-0.2-0.5c-1.5-1.5-3-3-4.5-4.5c-0.9-0.9-1.7-1.7-2.6-2.6c-0.3-0.4-0.9-0.6-1.3-0.3c-0.1,0.1-0.2,0.1-0.2,0.2
		c-2.2,2.2-4.4,4.3-6.5,6.5c-0.2,0.2-0.5,0.4-0.7,0.6c-0.1,0.1-0.1,0.2-0.1,0.3c0,3.4,0,6.8,0,10.1c0,1,0.8,1.7,1.8,1.8
		c0.9,0,1.8,0,2.7,0c0.2,0,0.3-0.1,0.3-0.3c0-1.6,0-3.3,0-4.9c0-1,0.4-1.9,1.1-2.6c1.4-1.3,3.5-1.2,4.8,0.2c0.5,0.5,0.8,1.2,0.9,1.9
		c0,0.3,0.1,0.7,0,1c0,1.4,0,2.9,0,4.3c0,0.2,0.1,0.3,0.3,0.3c0.8,0,1.6,0,2.5,0c1,0,1.8-0.8,1.8-1.8c0-0.4,0.2-0.8,0.6-0.9
		c0.4-0.1,0.8,0,1,0.3c0.2,0.2,0.2,0.5,0.2,0.7c-0.1,1.8-1.4,3.3-3.2,3.5c-0.1,0-0.1,0-0.2,0H683c-0.5-0.1-0.9-0.7-0.8-1.2
		c0-1.9,0-3.9,0-5.8c0-0.5-0.3-1-0.7-1.3c-0.7-0.5-1.7-0.3-2.2,0.4c-0.2,0.3-0.3,0.6-0.3,0.9c0,2,0,3.9,0,5.9
		c0.1,0.5-0.3,1.1-0.8,1.2h-4.1c-0.1,0-0.3-0.1-0.4-0.1c-1.8-0.3-3-1.9-3-3.7c0-2.7,0-5.3,0-8v-0.3c-0.1,0.1-0.2,0.1-0.3,0.2
		c-0.3,0.3-0.9,0.3-1.2,0c0,0,0,0,0,0c-0.1-0.2-0.2-0.3-0.3-0.5v-0.2c0.1-0.3,0.3-0.6,0.5-0.8c3.1-3.1,6.2-6.2,9.3-9.3
		c0.4-0.4,0.8-0.6,1.3-0.7c0.1,0,0.2-0.1,0.3-0.1h0.5c0,0,0.1,0,0.1,0c0.6,0.1,1.2,0.4,1.6,0.8c0.8,0.8,1.6,1.6,2.4,2.5
		c2.2,2.2,4.5,4.5,6.7,6.7c0.2,0.2,0.4,0.5,0.5,0.8L692.3,88z"/>
	<path class="st0" d="M680.6,87.5c-0.7,0-1.5,0-2.2,0c-0.5,0-0.9-0.3-1-0.8s0.3-0.9,0.8-1c0,0,0.1,0,0.1,0c0.8,0,1.6,0,2.4,0
		c0.7,0,1.3,0,2,0c0.5,0,0.9,0.4,0.9,0.9c0,0.1,0,0.2,0,0.3c-0.1,0.4-0.5,0.6-0.9,0.6C682.1,87.5,681.3,87.5,680.6,87.5z"/>
</g>
</svg>
