<?xml version="1.0" encoding="utf-8"?>
<!-- Generator: Adobe Illustrator 21.0.0, SVG Export Plug-In . SVG Version: 6.00 Build 0)  -->
<svg version="1.1" id="Layer_1" xmlns="http://www.w3.org/2000/svg" xmlns:xlink="http://www.w3.org/1999/xlink" x="0px" y="0px"
	 viewBox="0 0 23.8 23.5" style="enable-background:new 0 0 23.8 23.5;" xml:space="preserve">
<style type="text/css">
	.st0{fill:#535353;}
</style>
<g transform="translate(262.915 -167.752)">
	<g transform="translate(-262.915 167.752)">
		<path class="st0" d="M0.2,1.5c0-0.1,0.1-0.2,0.1-0.3c0.3-0.8,1-1.4,1.9-1.4c2.1,0,4.2,0,6.3,0c1.1,0,2,0.9,2,2c0,2.1,0,4.2,0,6.3
			c0,1.1-0.9,2-2,2c-2.1,0-4.1,0-6.2,0c-0.9,0-1.7-0.6-2-1.5c0-0.1,0-0.1-0.1-0.2V1.5z M2,4.9c0,1,0,2,0,2.9C2,8,2.1,8.1,2.3,8.1
			c2,0,3.9,0,5.9,0c0.3,0,0.3-0.1,0.3-0.3c0-1.9,0-3.9,0-5.8c0-0.2-0.1-0.3-0.3-0.3c-1.9,0-3.9,0-5.8,0C2.1,1.6,2,1.7,2,2
			C2,2.9,2,3.9,2,4.9z"/>
		<path class="st0" d="M0.2,14.9c0-0.1,0.1-0.2,0.1-0.3c0.3-0.8,1-1.4,1.9-1.4c2.1,0,4.2,0,6.3,0c1.1,0,2,0.9,2,2c0,2.1,0,4.2,0,6.3
			c0,1.1-0.9,2-2,2c-2.1,0-4.2,0-6.3,0c-0.8,0-1.6-0.6-1.9-1.4c0-0.1-0.1-0.2-0.1-0.3L0.2,14.9z M5.3,21.6c1,0,2,0,2.9,0
			c0.2,0,0.3-0.1,0.3-0.3c0-2,0-3.9,0-5.9c0-0.3-0.1-0.3-0.3-0.3c-1.9,0-3.9,0-5.8,0c-0.2,0-0.3,0.1-0.3,0.3c0,1.9,0,3.9,0,5.8
			c0,0.3,0.1,0.4,0.4,0.3C3.3,21.6,4.3,21.6,5.3,21.6z"/>
		<path class="st0" d="M21.5,2.6c2.4,0,4.9,0,7.3,0c0.5,0,1,0.3,1,0.8c0,0.1,0,0.3-0.1,0.4c-0.1,0.4-0.4,0.6-0.8,0.6
			c-0.1,0-0.2,0-0.3,0H14.3c-0.1,0-0.3,0-0.4,0c-0.5-0.1-0.8-0.5-0.7-1c0.1-0.5,0.5-0.8,0.9-0.8c1.3,0,2.6,0,3.9,0L21.5,2.6z"/>
		<path class="st0" d="M21.5,17.7c-2.4,0-4.9,0-7.3,0c-0.5,0-1-0.3-1-0.9c0-0.1,0-0.3,0.1-0.4c0.1-0.3,0.4-0.6,0.8-0.6
			c0.1,0,0.2,0,0.3,0h14.5c0.1,0,0.3,0,0.4,0c0.5,0.1,0.8,0.5,0.7,1c-0.1,0.5-0.5,0.8-0.9,0.8c-1.1,0-2.3,0-3.4,0L21.5,17.7z"/>
		<path class="st0" d="M19,6c1.6,0,3.2,0,4.8,0c0.5,0,1,0.4,1,0.9c0,0.1,0,0.3-0.1,0.4c-0.1,0.4-0.5,0.6-0.9,0.6c-0.5,0-1,0-1.5,0
			c-2.7,0-5.4,0-8.2,0c-0.5,0-1-0.3-1-0.9c0-0.1,0-0.3,0.1-0.4C13.4,6.2,13.7,6,14.1,6C15.8,6,17.4,6,19,6z"/>
		<path class="st0" d="M18.9,21.4c-1.6,0-3.2,0-4.8,0c-0.5,0-1-0.4-1-0.9c0-0.1,0-0.3,0.1-0.4c0.1-0.4,0.5-0.6,0.9-0.6
			c0.6,0,1.1,0,1.7,0c2.7,0,5.3,0,8,0c0.5,0,1,0.4,1,0.9c0,0.1,0,0.3-0.1,0.4c-0.2,0.4-0.5,0.6-1,0.6C22.1,21.4,20.5,21.4,18.9,21.4
			z"/>
	</g>
</g>
</svg>
