<svg xmlns="http://www.w3.org/2000/svg" width="26.859" height="23.184" viewBox="0 0 26.859 23.184"><g transform="translate(128.297 -110.333)"><g transform="translate(-128.297 110.333)"><path d="M-114.135,133.518H-115.6a1.769,1.769,0,0,0-.227-.045,10.655,10.655,0,0,1-3.031-.676,11.466,11.466,0,0,1-7.491-10.9q0-1.8,0-3.592v-.273c-.057-.017-.081-.027-.105-.031a2.055,2.055,0,0,1-1.837-2.1c0-1.145,0-2.289,0-3.435a2.222,2.222,0,0,1,.024-.365,2.063,2.063,0,0,1,2.14-1.764q8.955,0,17.908,0c1.574,0,3.147-.007,4.72,0a2.049,2.049,0,0,1,2.058,2.048q.016,1.8,0,3.592a2.044,2.044,0,0,1-1.578,1.976c-.115.029-.233.049-.362.077v.3q0,1.823,0,3.645a11.057,11.057,0,0,1-1.1,4.942,11.333,11.333,0,0,1-8.257,6.392C-113.2,133.406-113.671,133.45-114.135,133.518Zm-10.371-15.486c0,.085-.01.145-.01.206,0,1.285-.015,2.57.007,3.854a11.1,11.1,0,0,0,.147,1.615,9.649,9.649,0,0,0,9.066,7.966,9.451,9.451,0,0,0,6.851-2.455,9.067,9.067,0,0,0,3.145-6.147c.137-1.65.056-3.317.072-4.977,0-.015-.013-.031-.026-.062Zm9.654-5.86h-11.143c-.442,0-.465.023-.465.452q0,1.534,0,3.068c0,.472.016.488.483.488h22.26c.407,0,.439-.032.439-.427q0-1.573,0-3.146c0-.4-.033-.436-.43-.436Z" transform="translate(128.297 -110.333)" fill="#535353"/><path d="M-110.331,134.589a4.3,4.3,0,0,1-4.285-4.315,4.308,4.308,0,0,1,4.317-4.288,4.309,4.309,0,0,1,4.286,4.319A4.3,4.3,0,0,1-110.331,134.589Zm.016-1.836a2.463,2.463,0,0,0,2.465-2.464,2.471,2.471,0,0,0-2.465-2.467,2.472,2.472,0,0,0-2.465,2.468A2.464,2.464,0,0,0-110.315,132.753Z" transform="translate(123.743 -115.544)" fill="#535353"/><path d="M-107.593,131.876a1.155,1.155,0,0,1-1.167,1.136,1.155,1.155,0,0,1-1.131-1.171,1.16,1.16,0,0,1,1.153-1.125A1.16,1.16,0,0,1-107.593,131.876Z" transform="translate(122.169 -117.119)" fill="#535353"/></g></g></svg>