<?xml version="1.0" encoding="utf-8"?>
<!-- Generator: Adobe Illustrator 21.0.0, SVG Export Plug-In . SVG Version: 6.00 Build 0)  -->
<svg version="1.1" id="Layer_1" xmlns="http://www.w3.org/2000/svg" xmlns:xlink="http://www.w3.org/1999/xlink" x="0px" y="0px"
	 viewBox="0 0 116.3 100" style="enable-background:new 0 0 116.3 100;" xml:space="preserve">
<style type="text/css">
	.st0{enable-background:new    ;}
	.st1{fill:#FFFFFF;}
	.st2{fill:#B71C1C;}
</style>
<g>
	<g class="st0">
		<path class="st1" d="M2.6,82.2L7,95.1l4.3-12.8h2.3L8,97.3H5.9L0.4,82.2H2.6z"/>
		<path class="st1" d="M20.8,86.6c0.7,0.4,1.3,0.8,1.7,1.4c0.4,0.6,0.6,1.2,0.7,1.9c0.1,0.5,0.2,1.3,0.2,2.4h-8c0,1.1,0.3,2,0.8,2.7
			c0.5,0.7,1.2,1,2.3,1c1,0,1.7-0.3,2.3-1c0.3-0.4,0.5-0.8,0.7-1.3h1.8c0,0.4-0.2,0.9-0.5,1.3c-0.3,0.5-0.6,0.9-0.9,1.2
			c-0.6,0.5-1.2,0.9-2.1,1.1c-0.4,0.1-0.9,0.2-1.5,0.2c-1.4,0-2.5-0.5-3.5-1.5c-0.9-1-1.4-2.4-1.4-4.2c0-1.8,0.5-3.2,1.4-4.3
			s2.2-1.7,3.7-1.7C19.4,86.1,20.1,86.3,20.8,86.6z M21.5,90.9c-0.1-0.8-0.2-1.4-0.5-1.9c-0.5-0.9-1.3-1.3-2.5-1.3
			c-0.8,0-1.5,0.3-2.1,0.9c-0.6,0.6-0.9,1.4-0.9,2.3H21.5z"/>
		<path class="st1" d="M25.7,86.3h1.8v1.6c0.5-0.6,1.1-1.1,1.7-1.4s1.2-0.4,1.9-0.4c1.6,0,2.6,0.5,3.2,1.6c0.3,0.6,0.5,1.4,0.5,2.6
			v7h-1.9v-6.9c0-0.7-0.1-1.2-0.3-1.6c-0.3-0.7-0.9-1-1.8-1c-0.4,0-0.8,0-1.1,0.1c-0.5,0.2-1,0.5-1.3,0.9c-0.3,0.4-0.5,0.7-0.6,1.1
			c-0.1,0.4-0.1,0.9-0.1,1.7v5.8h-1.8V86.3z"/>
		<path class="st1" d="M37.8,83.3h1.9v3.1h1.8v1.5h-1.8V95c0,0.4,0.1,0.6,0.4,0.8c0.1,0.1,0.4,0.1,0.7,0.1c0.1,0,0.2,0,0.3,0
			c0.1,0,0.2,0,0.4,0v1.5c-0.2,0.1-0.4,0.1-0.7,0.1s-0.5,0-0.7,0c-0.9,0-1.4-0.2-1.8-0.7c-0.3-0.4-0.5-1-0.5-1.7v-7.3h-1.5v-1.5h1.5
			V83.3z"/>
		<path class="st1" d="M43.3,86.3H45v1.9c0.1-0.4,0.5-0.8,1.1-1.3c0.6-0.5,1.2-0.8,1.9-0.8c0,0,0.1,0,0.2,0s0.2,0,0.4,0v1.9
			c-0.1,0-0.2,0-0.3,0c-0.1,0-0.2,0-0.3,0c-0.9,0-1.6,0.3-2.1,0.9c-0.5,0.6-0.7,1.3-0.7,2.1v6.3h-1.8V86.3z"/>
		<path class="st1" d="M56.1,90.7c0.4-0.1,0.7-0.2,0.9-0.5c0.1-0.2,0.1-0.4,0.1-0.7c0-0.6-0.2-1.1-0.7-1.4s-1.1-0.4-1.9-0.4
			c-1,0-1.6,0.3-2,0.8c-0.2,0.3-0.4,0.7-0.4,1.3h-1.7c0-1.4,0.5-2.3,1.3-2.8s1.8-0.8,2.9-0.8c1.3,0,2.3,0.2,3.1,0.7
			c0.8,0.5,1.2,1.3,1.2,2.3v6.3c0,0.2,0,0.3,0.1,0.5c0.1,0.1,0.2,0.2,0.5,0.2c0.1,0,0.2,0,0.3,0c0.1,0,0.2,0,0.3,0v1.4
			c-0.3,0.1-0.5,0.1-0.7,0.2s-0.4,0-0.6,0c-0.6,0-1.1-0.2-1.4-0.7c-0.2-0.2-0.3-0.6-0.3-1c-0.4,0.5-0.9,0.9-1.6,1.3
			c-0.7,0.4-1.5,0.5-2.3,0.5c-1,0-1.9-0.3-2.5-0.9c-0.6-0.6-1-1.4-1-2.3c0-1,0.3-1.8,1-2.4s1.5-0.9,2.5-1L56.1,90.7z M52.2,95.6
			c0.4,0.3,0.9,0.5,1.4,0.5c0.6,0,1.3-0.2,1.9-0.5c1-0.5,1.5-1.3,1.5-2.4v-1.5c-0.2,0.1-0.5,0.3-0.9,0.4c-0.4,0.1-0.7,0.2-1,0.2
			L54,92.4c-0.7,0.1-1.2,0.2-1.5,0.4c-0.6,0.3-0.9,0.8-0.9,1.5C51.6,94.9,51.8,95.3,52.2,95.6z"/>
		<path class="st1" d="M72.8,83.3c1,1,1.6,2.1,1.7,3.4h-2c-0.2-1-0.7-1.7-1.3-2.3s-1.6-0.9-2.8-0.9c-1.5,0-2.6,0.5-3.5,1.6
			c-0.9,1-1.3,2.6-1.3,4.8c0,1.8,0.4,3.2,1.2,4.3c0.8,1.1,2,1.6,3.6,1.6c1.5,0,2.6-0.6,3.4-1.7c0.4-0.6,0.7-1.4,0.9-2.4h2
			c-0.2,1.6-0.8,2.9-1.7,4c-1.2,1.3-2.8,1.9-4.8,1.9c-1.7,0-3.2-0.5-4.4-1.6c-1.5-1.4-2.3-3.6-2.3-6.5c0-2.2,0.6-4,1.7-5.5
			c1.3-1.5,3-2.3,5.2-2.3C70.3,81.8,71.8,82.3,72.8,83.3z"/>
		<path class="st1" d="M77.1,82.2H79v15.1h-1.8V82.2z"/>
		<path class="st1" d="M89.7,87.4c1,0.9,1.5,2.3,1.5,4.2c0,1.8-0.4,3.2-1.3,4.4c-0.9,1.2-2.2,1.7-4,1.7c-1.5,0-2.7-0.5-3.6-1.5
			c-0.9-1-1.3-2.4-1.3-4.1c0-1.8,0.5-3.3,1.4-4.4c0.9-1.1,2.2-1.6,3.7-1.6C87.5,86,88.7,86.5,89.7,87.4z M88.6,94.7
			c0.4-0.9,0.7-2,0.7-3.1c0-1-0.2-1.9-0.5-2.5c-0.5-1-1.4-1.5-2.7-1.5c-1.1,0-1.9,0.4-2.4,1.3s-0.8,1.9-0.8,3.1
			c0,1.2,0.3,2.1,0.8,2.9s1.3,1.2,2.4,1.2C87.3,96.1,88.1,95.6,88.6,94.7z"/>
		<path class="st1" d="M95.3,86.3v7.3c0,0.6,0.1,1,0.3,1.4c0.3,0.7,0.9,1,1.8,1c1.3,0,2.1-0.6,2.6-1.7c0.2-0.6,0.4-1.5,0.4-2.5v-5.4
			h1.8v11h-1.7l0-1.6c-0.2,0.4-0.5,0.8-0.9,1.1c-0.7,0.6-1.5,0.9-2.5,0.9c-1.5,0-2.6-0.5-3.1-1.6c-0.3-0.6-0.5-1.3-0.5-2.2v-7.5
			H95.3z"/>
		<path class="st1" d="M111.1,86.7c0.3,0.2,0.7,0.6,1.1,1.1v-5.5h1.8v15.1h-1.7v-1.5c-0.4,0.7-0.9,1.2-1.5,1.5
			c-0.6,0.3-1.3,0.5-2,0.5c-1.2,0-2.3-0.5-3.2-1.5c-0.9-1-1.3-2.4-1.3-4.1c0-1.6,0.4-3,1.2-4.2c0.8-1.2,2-1.8,3.5-1.8
			C109.9,86.1,110.6,86.3,111.1,86.7z M107,94.9c0.5,0.8,1.3,1.2,2.4,1.2c0.9,0,1.5-0.4,2.1-1.1c0.5-0.7,0.8-1.8,0.8-3.2
			c0-1.4-0.3-2.4-0.8-3.1c-0.6-0.7-1.3-1-2.1-1c-0.9,0-1.7,0.4-2.2,1.1s-0.9,1.8-0.9,3.1C106.3,93.1,106.5,94.1,107,94.9z"/>
	</g>
	<g transform="translate(50.079 -9.515)">
		<path class="st1" d="M14.8,81.2c8.6,0,17.2,0,25.8,0c2.9,0.1,5.3-2.2,5.3-5.1c0-2.8-2.1-5.2-5-5.3c-3.4-0.1-6.9,0-10.3,0
			c-2.5,0-4.9,0-7.4,0c-3.8,0.1-7.1-2.4-8.1-6.1c-1.3-4.5,2.2-9.8,6.9-10c5-0.2,10-0.2,15-0.2c4.1,0,8.3,0,12.4,0
			c2.9,0.1,5.3-2.1,5.4-5c0,0,0-0.1,0-0.1c0-2.9-2.3-5.3-5.2-5.3c-0.1,0-0.1,0-0.2,0c-10.6,0-21.2,0-31.8,0
			c-3.3,0.2-6.3-1.6-7.8-4.6c-2-3.9-0.4-8.7,3.5-10.7c1-0.5,2-0.8,3.1-0.8c4.8-0.2,9.6,0,14.4-0.1c1,0,1.9-0.1,2.9-0.1
			c0.5,0,1,0.2,1.4,0.6c0.3,0.4,0.3,0.9,0.1,1.4c-0.3,0.4-0.8,0.7-1.4,0.8c-2.7,0.1-5.4,0-8.1,0c-2.9,0-5.7,0-8.6,0
			c-2.4-0.1-4.6,1.5-5.2,3.9c-0.8,2.7,0.8,5.6,3.5,6.4c0.5,0.1,1,0.2,1.4,0.2c10.3,0,20.6,0,30.9,0c2.5,0,4.9,0.2,6.9,2
			c2.4,1.9,3.4,5.1,2.6,8c-0.7,3.1-3.3,5.5-6.5,6c-1.1,0.2-2.1,0.2-3.2,0.2c-8.2,0-16.5,0-24.7,0c-1.2,0-2.4,0.4-3.3,1.1
			c-2.3,1.7-2.7,5-1,7.3c0.9,1.2,2.3,1.9,3.8,2c1.7,0.1,3.4,0,5.1,0c4.1,0,8.2,0,12.3,0c2.1-0.1,4.2,0.6,5.8,1.9
			c3.4,2.8,3.9,7.8,1.1,11.3c-0.6,0.7-1.3,1.3-2.1,1.8c-1.4,0.9-3.1,1.3-4.8,1.3C23,84,5.9,84-11.2,84c-0.3,0-0.5,0-0.8,0
			c-0.8-0.1-1.3-0.7-1.3-1.5c0.1-0.7,0.6-1.2,1.3-1.3c0.5-0.1,1-0.1,1.5-0.1C-2.1,81.2,6.4,81.1,14.8,81.2z"/>
		<path class="st1" d="M65.8,28.1v-1.4c0-0.1,0-0.1-0.1-0.2c-0.2-2.4-1.7-4.5-3.9-5.4c-0.5-0.2-0.8-0.7-0.7-1.2
			c0.1-1.8-0.5-3.6-1.5-5.1c-2.1-3.1-6.3-3.9-9.4-1.9c-0.5,0.3-0.9,0.7-1.3,1.2c-0.3,0.3-0.5,0.7-0.8,1c-0.3,0.5-0.9,0.6-1.4,0.3
			c0,0,0,0-0.1,0c-0.1-0.1-0.3-0.2-0.4-0.2c-1.9-1.2-4.4-1.1-6.2,0.3c-1.4,1-2.3,2.5-2.6,4.2c-0.2,0.9-0.6,1.2-1.4,1.1
			c-1.4-0.3-2.9,0.1-4,1c-2.1,1.5-3.2,4.1-2.7,6.7c0.4,3.1,3,5.5,6.2,5.5c8-0.1,15.9,0,23.9,0c2.5,0.1,4.8-1.4,5.7-3.7
			C65.5,29.5,65.7,28.8,65.8,28.1z"/>
	</g>
	<g class="st0">
		<path class="st2" d="M97.4,10l2.7,7.9l2.6-7.9h1.4l-3.4,9.3h-1.3L96,10H97.4z"/>
	</g>
</g>
</svg>
