<?xml version="1.0" encoding="utf-8"?>
<!-- Generator: Adobe Illustrator 21.0.0, SVG Export Plug-In . SVG Version: 6.00 Build 0)  -->
<svg version="1.1" id="Layer_1" xmlns="http://www.w3.org/2000/svg" xmlns:xlink="http://www.w3.org/1999/xlink" x="0px" y="0px"
	 viewBox="0 0 17.3 23.8" style="enable-background:new 0 0 17.3 23.8;" xml:space="preserve">
<style type="text/css">
	.st0{fill:#535353;}
</style>
<g transform="translate(-153.279 -218.454)">
	<g transform="translate(153.279 218.454)">
		<path class="st0" d="M0,11.9c0-3.3,0-6.6,0-10c-0.1-0.7,0.4-1.3,1.1-1.5c0.5-0.1,0.9,0,1.3,0.3C4,1.8,5.6,3,7.2,4.1
			c3.1,2.2,6.2,4.4,9.3,6.5c0.5,0.3,0.8,0.9,0.7,1.6c-0.1,0.4-0.3,0.7-0.7,1c-2.2,1.6-4.5,3.1-6.7,4.7c-2.5,1.8-5,3.5-7.5,5.3
			c-0.6,0.5-1.5,0.4-2-0.2c-0.1-0.1-0.1-0.2-0.2-0.3C0.1,22.4,0,22.1,0,21.8C0,18.5,0,15.2,0,11.9z M14.8,11.9L2.1,3v17.8L14.8,11.9
			z"/>
	</g>
</g>
</svg>
